<?xml version="1.0" encoding="UTF-8" standalone="no"?>
<svg
   height="16"
   viewBox="0 -960 768 768"
   width="16"
   fill="context-fill"
   version="1.1"
   id="svg1"
   sodipodi:docname="reload.svg"
   inkscape:version="1.4.2 (ebf0e940d0, 2025-05-08)"
   xmlns:inkscape="http://www.inkscape.org/namespaces/inkscape"
   xmlns:sodipodi="http://sodipodi.sourceforge.net/DTD/sodipodi-0.dtd"
   xmlns="http://www.w3.org/2000/svg"
   xmlns:svg="http://www.w3.org/2000/svg">
  <defs
     id="defs1" />
  <sodipodi:namedview
     id="namedview1"
     pagecolor="#ffffff"
     bordercolor="#000000"
     borderopacity="0.25"
     inkscape:showpageshadow="2"
     inkscape:pageopacity="0.0"
     inkscape:pagecheckerboard="0"
     inkscape:deskcolor="#d1d1d1"
     inkscape:zoom="11.725"
     inkscape:cx="6.2260128"
     inkscape:cy="7.7185501"
     inkscape:window-width="1195"
     inkscape:window-height="659"
     inkscape:window-x="0"
     inkscape:window-y="0"
     inkscape:window-maximized="1"
     inkscape:current-layer="svg1" />
  <path
     d="m 384,-245.01493 q -137.91044,0 -234.44776,-96.53731 Q 53.014925,-438.08956 53.014925,-576 q 0,-137.91044 96.537315,-234.44776 96.53732,-96.53732 234.44776,-96.53732 74.7015,0 138.48508,31.02985 63.78358,31.02985 109.75373,82.74627 v -113.77612 h 82.74627 v 275.82091 h -275.8209 v -82.74627 H 589.71642 Q 556.38806,-764.47762 502.37314,-794.3582 448.35821,-824.2388 384,-824.2388 q -103.43283,0 -175.83582,72.40298 Q 135.7612,-679.43283 135.7612,-576 q 0,103.43283 72.40298,175.83583 72.40299,72.40298 175.83582,72.40298 96.53732,0 165.49254,-63.78358 68.95523,-63.78358 79.29851,-156.87314 h 85.04478 q -10.34329,128.71641 -104.5821,216.0597 -94.2388,87.34328 -225.25373,87.34328 z"
     id="path1"
     style="stroke-width:1.14925" />
</svg>
